HIERARCHY
ROOT Hips
{
	OFFSET	0.00	0.00	0.00
	CHANNELS 6 Xposition Yposition Zposition Zrotation Xrotation Yrotation
	JOINT Spine
	{
		OFFSET	 0.00	0.01	 0.00
		CHANNELS 3 Zrotation Xrotation Yrotation
		JOINT Spine1
		{
			OFFSET	 0.00	 2.45913012437421	 0.00
			CHANNELS 3 Zrotation Xrotation Yrotation
            JOINT Neck
            {
                OFFSET	 0.00	 2.48462964506057	 0.00
                CHANNELS 3 Zrotation Xrotation Yrotation
                JOINT Head
                {
                    OFFSET	 0.00	 0.927524780924562	 0.00
                    CHANNELS 3 Zrotation Xrotation Yrotation
                    End Site 
                    {
                        OFFSET	 0.00	 1.14999962169752	 0.00
                    }
                }
            }
			JOINT LeftShoulder
			{
				OFFSET	 0.00	 2.48462964506057	 0.00
				CHANNELS 3 Zrotation Xrotation Yrotation
				JOINT LeftUpArm
				{
					OFFSET	 0.00	 1.24881979654096	 0.00
					CHANNELS 3 Zrotation Xrotation Yrotation
					JOINT LeftForeArm
					{
						OFFSET	 0.00	2.59758046908119	 0.00
						CHANNELS 3 Zrotation Xrotation Yrotation
						JOINT LeftHand
						{
							OFFSET	 0.00	2.45542024364365	 0.00
							CHANNELS 3 Zrotation Xrotation Yrotation
							JOINT LeftHandThumb 
							{
								OFFSET	 0.00	0.00	 0.00
								CHANNELS 3 Zrotation Xrotation Yrotation
								End Site
								{
									OFFSET	 0.00	0.00	1.00000003353624
								}
							}
							JOINT L_Wrist_End 
							{
								OFFSET	 0.00	0.99999967115358	 0.00
								CHANNELS 3 Zrotation Xrotation Yrotation
								End Site 
								{
									OFFSET	 0.00	 0.00	 0.00
								}
							}
						}
					}
				}
			}
			JOINT RightShoulder
			{
				OFFSET	 0.00	 2.48462964506057	 0.00
				CHANNELS 3 Zrotation Xrotation Yrotation
				JOINT RightUpArm
				{
					OFFSET	 0.00	 1.24881979654096	 0.00
					CHANNELS 3 Zrotation Xrotation Yrotation
					JOINT RightForeArm
					{
						OFFSET	 0.00	2.59758046908119	 0.00
						CHANNELS 3 Zrotation Xrotation Yrotation
						JOINT RightHand
						{
							OFFSET	 0.00	2.45542024364365	 0.00
							CHANNELS 3 Zrotation Xrotation Yrotation
							JOINT RightHandThumb 
							{
								OFFSET	 0.00	0.00	 0.00
								CHANNELS 3 Zrotation Xrotation Yrotation
								End Site
								{
									OFFSET	 0.00	0.00	1.00000003353624
								}
							}
							JOINT R_Wrist_End 
							{
								OFFSET	 0.00	0.99999967115358	 0.00
								CHANNELS 3 Zrotation Xrotation Yrotation
								End Site 
								{
									OFFSET	 0.00	 0.00	 0.00
								}
							}
						}
					}
				}
			}
		}
	}
	JOINT LeftUpLeg
	{
		OFFSET	 1.2719394002717	 0.00	 0.00
		CHANNELS 3 Zrotation Xrotation Yrotation
		JOINT LeftLowLeg
		{
			OFFSET	 0.00	-4.3429100912261	 0.00
			CHANNELS 3 Zrotation Xrotation Yrotation
			JOINT LeftFoot
			{
				OFFSET	 0.00	-4.48767017425826	 0.00
				CHANNELS 3 Zrotation Xrotation Yrotation
				JOINT LeftToeBase
                {
                    OFFSET	 0.00	0.00	 1.51507020887566
                    CHANNELS 3 Zrotation Xrotation Yrotation
                    End Site 
                    {
                        OFFSET	 0.00	0.00	 0.75000010571191
                    }
                }
			}
		}
	}
	JOINT RightUpLeg
	{
		OFFSET	 -1.2719393604653	 0.00	 0.00
		CHANNELS 3 Zrotation Xrotation Yrotation
		JOINT RightLowLeg
		{
			OFFSET	 0.00	-4.3429100912261	 0.00
			CHANNELS 3 Zrotation Xrotation Yrotation
			JOINT RightFoot
			{
				OFFSET	 0.00	-4.48767017425826	 0.00
				CHANNELS 3 Zrotation Xrotation Yrotation
				JOINT RightToeBase
                {
                    OFFSET	 0.00	0.00	 1.51507020887566
                    CHANNELS 3 Zrotation Xrotation Yrotation
                    End Site 
                    {
                        OFFSET	 0.00	0.00	 0.749999965609858
                    }
                }   
			}
		}
	}
}
MOTION 
Frames:	16 
Frame Time: 0.02 
 1.4236500549316407 -4.25302001953125 9.354769897460937 -153.264 80.3281 157.927 1.91904 -8.37132 -1.0173 2.62302 -8.89147 -0.668977 -12.0368 66.4724 364.871 82.2185 -74.3469 783.997 -113.2333 -9.39855 -12.7451 19.4967 14.472 -30.3298 0.0 6.8028 0.0 19.9498 -12.4004 26.1893 0.0 0.0 0.0 0.0 0.0 0.0 107.855896 -8.72495 -343.342 -6.26626 -0.409468 55.7576 0.0 17.8114 0.0 -26.107 -19.5119 -49.1574 0.0 0.0 0.0 0.0 0.0 0.0 4.57734 -6.14809 2.70454 0.0 6.20606 0.0 -16.403 2.0874004 5.31389 0.0 -29.1165 0.0 6.34004 -5.3069 6.33345 0.0 7.64779 0.0 10.4197 4.8669996 -17.2691 0.0 -37.3674 0.0 
  1.4239700317382813 -4.246900024414063 9.355579833984375 -153.013 80.3773 157.632 1.98081 -8.28545 -1.0004 2.55269 -8.86791 -0.6646 -10.2612 66.7415 362.492 82.1378 -74.4991 783.483 -113.2486 -9.3756 -12.7098 19.5397 14.448 -30.2574 0.0 6.64404 0.0 19.9985 -12.5194 26.329 0.0 0.0 0.0 0.0 0.0 0.0 107.8733 -8.64463 -343.39 -6.33333 -0.434629 55.5769 0.0 17.617 0.0 -26.2996 -19.5937 -49.4165 0.0 0.0 0.0 0.0 0.0 0.0 4.59597 -6.11617 2.6659 0.0 6.20765 0.0 -16.4052 2.0951996 5.37791 0.0 -29.139801 0.0 6.36266 -5.28811 6.45016 0.0 7.64953 0.0 10.4691 4.9089003 -17.3413 0.0 -37.401802 0.0 
  1.42427001953125 -4.240669860839843 9.356190185546875 -152.905 80.433 157.494 2.00056 -8.20502 -0.99021 2.50814 -8.78051 -0.66016 -8.9175 66.8962 360.694 82.3577 -74.6283 783.329 -113.2361 -9.41896 -12.7343 19.4757 14.4754 -30.252 0.0 6.58088 0.0 20.0437 -12.5067 26.4256 0.0 0.0 0.0 0.0 0.0 0.0 107.8798 -8.65452 -343.387 -6.34869 -0.358364 55.4761 0.0 17.4405 0.0 -26.4588 -19.5024 -49.5149 0.0 0.0 0.0 0.0 0.0 0.0 4.58777 -6.09602 2.65886 0.0 6.21466 0.0 -16.3907 2.1161003 5.42051 0.0 -29.1229 0.0 6.35154 -5.28766 6.44092 0.0 7.68158 0.0 10.4614 4.9423 -17.294 0.0 -37.4305 0.0 
  1.424429931640625 -4.234429931640625 9.356909790039062 -152.708 80.5049 157.288 1.99985 -8.09353 -0.992577 2.51059 -8.73351 -0.664113 -7.58173 67.056 358.915 82.3825 -74.7393 783.122 -113.2325 -9.44851 -12.714 19.402 14.4635 -30.2621 0.0 6.57749 0.0 20.0228 -12.5294 26.3891 0.0 0.0 0.0 0.0 0.0 0.0 107.854996 -8.61802 -343.424 -6.34912 -0.360223 55.4531 0.0 17.3694 0.0 -26.5863 -19.4026 -49.5095 0.0 0.0 0.0 0.0 0.0 0.0 4.58662 -6.06331 2.63895 0.0 6.22901 0.0 -16.3771 2.1464996 5.45463 0.0 -29.1336 0.0 6.3542 -5.27993 6.41646 0.0 7.73935 0.0 10.4529 4.9669 -17.2816 0.0 -37.3947 0.0 
  1.4243800354003906 -4.228330078125 9.357410278320312 -152.513 80.579 157.127 1.97894 -8.00853 -1.02535 2.52797 -8.63628 -0.697048 -6.57401 67.161 357.561 82.4337 -74.8475 782.922 -113.2311 -9.49776 -12.7583 19.3107 14.4738 -30.1741 0.0 6.60957 0.0 19.951 -12.5252 26.2416 0.0 0.0 0.0 0.0 0.0 0.0 107.8115 -8.57509 -343.44 -6.31015 -0.357129 55.5347 0.0 17.3747 0.0 -26.6328 -19.3711 -49.5934 0.0 0.0 0.0 0.0 0.0 0.0 4.58229 -6.0439 2.60259 0.0 6.25731 0.0 -16.371 2.1760998 5.4557 0.0 -29.1616 0.0 6.35173 -5.24657 6.42749 0.0 7.75173 0.0 10.4596 4.9821997 -17.3295 0.0 -37.3597 0.0 
  1.4246200561523437 -4.222319946289063 9.358049926757813 -152.346 80.6216 156.991 2.00237 -7.93465 -1.01706 2.48573 -8.59175 -0.694029 -5.57751 67.3158 356.269 82.5567 -74.8872 782.956 -113.2014 -9.49355 -12.7284 19.2213 14.4872 -30.1492 0.0 6.65746 0.0 19.9025 -12.4821 26.1764 0.0 0.0 0.0 0.0 0.0 0.0 107.7982 -8.6071 -343.453 -6.28456 -0.354521 55.5674 0.0 17.4004 0.0 -26.5933 -19.3829 -49.3988 0.0 0.0 0.0 0.0 0.0 0.0 4.58275 -6.05643 2.58475 0.0 6.28917 0.0 -16.3497 2.2043 5.4626 0.0 -29.152401 0.0 6.35568 -5.21957 6.55108 0.0 7.72868 0.0 10.5032 4.9937 -17.4446 0.0 -37.359802 0.0 
  1.4245199584960937 -4.216159973144531 9.358480224609375 -152.188 80.6701 156.859 2.00853 -7.87786 -1.01687 2.45695 -8.50817 -0.697061 -4.58733 67.4298 355.01 82.477 -74.9003 782.866 -113.1793 -9.52258 -12.7485 19.142 14.5646 -30.1236 0.0 6.67966 0.0 19.8819 -12.4069 26.1136 0.0 0.0 0.0 0.0 0.0 0.0 107.7962 -8.62893 -343.399 -6.2818 -0.321403 55.5685 0.0 17.4176 0.0 -26.4883 -19.3901 -49.1468 0.0 0.0 0.0 0.0 0.0 0.0 4.58339 -6.06168 2.56408 0.0 6.31604 0.0 -16.3381 2.2312002 5.46418 0.0 -29.1694 0.0 6.35773 -5.20084 6.5926 0.0 7.72366 0.0 10.5521 5.0014095 -17.4976 0.0 -37.4104 0.0 
  1.424010009765625 -4.210490112304687 9.358889770507812 -152.021 80.713 156.731 2.01036 -7.83084 -1.01428 2.42235 -8.43878 -0.69612 -3.99449 67.5458 354.258 82.5829 -74.9111 782.877 -113.1657 -9.50101 -12.7124 19.1277 14.6021 -30.0846 0.0 6.69853 0.0 19.8439 -12.376 26.1119 0.0 0.0 0.0 0.0 0.0 0.0 107.8048 -8.68474 -343.405 -6.29148 -0.242777 55.6706 0.0 17.3812 0.0 -26.4312 -19.3374 -49.1161 0.0 0.0 0.0 0.0 0.0 0.0 4.58942 -6.06623 2.54226 0.0 6.33323 0.0 -16.3429 2.2634 5.4502 0.0 -29.1693 0.0 6.36203 -5.17842 6.61148 0.0 7.70856 0.0 10.5534 5.03545 -17.5419 0.0 -37.433 0.0 
  1.423769989013672 -4.203880004882812 9.359140014648437 -151.956 80.7639 156.684 2.00456 -7.74397 -1.01426 2.39471 -8.40205 -0.695506 -3.53455 67.6123 353.69 82.4224 -74.8987 782.737 -113.132 -9.52335 -12.6884 19.08 14.6527 -30.0648 0.0 6.72572 0.0 19.8656 -12.3574 26.1492 0.0 0.0 0.0 0.0 0.0 0.0 107.7931 -8.72386 -343.394 -6.29256 -0.17512 55.5371 0.0 17.3648 0.0 -26.5757 -19.2871 -49.3259 0.0 0.0 0.0 0.0 0.0 0.0 4.57626 -6.06927 2.54574 0.0 6.34572 0.0 -16.3278 2.3066998 5.44017 0.0 -29.175701 0.0 6.34769 -5.17865 6.62647 0.0 7.72631 0.0 10.583 5.0349703 -17.5481 0.0 -37.4566 0.0 
  1.4231900024414061 -4.197380065917969 9.359559936523437 -151.792 80.8007 156.537 2.00809 -7.66576 -1.01379 2.37785 -8.37155 -0.696409 -3.26635 67.6724 353.358 82.3687 -74.8935 782.667 -113.1142 -9.53166 -12.6663 19.0667 14.6949 -30.0785 0.0 6.7365 0.0 19.8796 -12.3165 26.1449 0.0 0.0 0.0 0.0 0.0 0.0 107.799805 -8.72537 -343.397 -6.32823 -0.129273 55.5776 0.0 17.3754 0.0 -26.5363 -19.3742 -49.1783 0.0 0.0 0.0 0.0 0.0 0.0 4.58882 -6.0725 2.58066 0.0 6.35025 0.0 -16.3356 2.3477 5.38937 0.0 -29.196 0.0 6.35903 -5.1752 6.75216 0.0 7.72727 0.0 10.6164 5.0459404 -17.6517 0.0 -37.4528 0.0 
  1.4236300659179688 -4.190820007324219 9.36010009765625 -151.749 80.8231 156.473 2.02997 -7.60406 -0.997657 2.34303 -8.3552 -0.684004 -3.09742 67.7365 353.15 82.3119 -74.8847 782.635 -113.0866 -9.52307 -12.6009 19.0629 14.6972 -30.1178 0.0 6.73756 0.0 19.9106 -12.3125 26.1251 0.0 0.0 0.0 0.0 0.0 0.0 107.7774 -8.68916 -343.441 -6.34054 -0.144024 55.4911 0.0 17.3538 0.0 -26.6275 -19.2529 -49.1541 0.0 0.0 0.0 0.0 0.0 0.0 4.58233 -6.08358 2.60967 0.0 6.34235 0.0 -16.3246 2.3862 5.39482 0.0 -29.1912 0.0 6.34975 -5.20329 6.79729 0.0 7.74477 0.0 10.662 5.0579796 -17.6392 0.0 -37.420998 0.0 
  1.4234199523925781 -4.183710021972656 9.360700073242187 -151.591 80.8662 156.284 2.03161 -7.52404 -0.990779 2.35121 -8.29064 -0.679287 -3.0363 67.7543 353.075 82.2988 -74.8787 782.668 -113.089005 -9.53362 -12.6066 19.074 14.719 -30.1138 0.0 6.73445 0.0 19.9428 -12.3284 26.0967 0.0 0.0 0.0 0.0 0.0 0.0 107.7549 -8.62782 -343.528 -6.33188 -0.141746 55.6048 0.0 17.3711 0.0 -26.6732 -19.1054 -49.3679 0.0 0.0 0.0 0.0 0.0 0.0 4.58767 -6.06066 2.56439 0.0 6.31817 0.0 -16.3256 2.4125996 5.45998 0.0 -29.1901 0.0 6.35224 -5.21721 6.82433 0.0 7.76323 0.0 10.6542 5.0880604 -17.6164 0.0 -37.246597 0.0 
  1.42302001953125 -4.175589904785157 9.361240234375 -151.487 80.8941 156.117 2.04551 -7.4306 -0.96335 2.35135 -8.24967 -0.654922 -3.13247 67.7536 353.183 82.3141 -74.8895 782.709 -113.0532 -9.51228 -12.6047 19.0279 14.6866 -30.1332 0.0 6.77286 0.0 20.0046 -12.3248 26.0888 0.0 0.0 0.0 0.0 0.0 0.0 107.728 -8.56836 -343.606 -6.32426 -0.186196 55.3927 0.0 17.4089 0.0 -26.6601 -19.1055 -49.0843 0.0 0.0 0.0 0.0 0.0 0.0 4.59622 -6.07116 2.60732 0.0 6.32399 0.0 -16.3076 2.4375 5.48726 0.0 -29.1889 0.0 6.35855 -5.26887 6.83478 0.0 7.81492 0.0 10.6411 5.13636 -17.5689 0.0 -37.23 0.0 
  1.422519989013672 -4.167680053710938 9.361840209960938 -151.315 80.9488 155.9 2.04128 -7.31637 -0.947218 2.38 -8.17172 -0.6403 -3.29367 67.7103 353.349 82.4178 -74.926 782.849 -113.0143 -9.52852 -12.6247 18.9308 14.6918 -30.1223 0.0 6.8269 0.0 20.0779 -12.2972 26.0077 0.0 0.0 0.0 0.0 0.0 0.0 107.705795 -8.55958 -343.642 -6.29018 -0.107087 55.4437 0.0 17.4161 0.0 -26.7082 -19.0122 -49.2835 0.0 0.0 0.0 0.0 0.0 0.0 4.60114 -6.04575 2.58646 0.0 6.31303 0.0 -16.3057 2.4666004 5.54984 0.0 -29.1945 0.0 6.36195 -5.26713 6.86623 0.0 7.82457 0.0 10.6475 5.17066 -17.5457 0.0 -37.1862 0.0 
  1.4226300048828124 -4.158280029296875 9.362570190429688 -151.197 80.9863 155.742 2.06923 -7.18021 -0.927559 2.36992 -8.13578 -0.626428 -3.50737 67.6856 353.576 82.548 -74.9659 783.027 -112.9426 -9.51013 -12.5937 18.8041 14.6411 -30.1122 0.0 6.88242 0.0 20.1231 -12.2605 25.9477 0.0 0.0 0.0 0.0 0.0 0.0 107.6855 -8.52716 -343.655 -6.2396 -0.120725 55.1205 0.0 17.4632 0.0 -26.6706 -19.0214 -49.1273 0.0 0.0 0.0 0.0 0.0 0.0 4.59891 -6.06384 2.54456 0.0 6.32716 0.0 -16.3273 2.4843998 5.62414 0.0 -29.1833 0.0 6.35779 -5.30284 6.85431 0.0 7.84998 0.0 10.6549 5.2167797 -17.4938 0.0 -37.1762 0.0 
  1.4217900085449218 -4.148320007324219 9.363099975585937 -151.085 81.0371 155.583 2.05459 -7.02002 -0.91203 2.40962 -8.1081 -0.609408 -3.71545 67.6484 353.784 82.5527 -75.0213 783.069 -112.8815 -9.46733 -12.6098 18.6609 14.5977 -30.0087 0.0 6.91045 0.0 20.1753 -12.2219 25.7859 0.0 0.0 0.0 0.0 0.0 0.0 107.6326 -8.46583 -343.741 -6.1501 -0.111695 55.0805 0.0 17.4441 0.0 -26.6864 -18.9413 -48.8318 0.0 0.0 0.0 0.0 0.0 0.0 4.59931 -6.06879 2.53645 0.0 6.3337 0.0 -16.3269 2.5173998 5.67428 0.0 -29.167 0.0 6.35839 -5.31127 6.97759 0.0 7.83908 0.0 10.6746 5.24841 -17.5543 0.0 -37.0704 0.0 
